<?xml version="1.0" encoding="UTF-8"?>
<svg width="111px" height="32px" viewBox="0 0 207 60" version="1.1" xmlns="http://www.w3.org/2000/svg" xmlns:xlink="http://www.w3.org/1999/xlink">
    <!-- Generator: Sketch 51.3 (57544) - http://www.bohemiancoding.com/sketch -->
    <title>Untitled</title>
    <desc>Created with Sketch.</desc>
    <defs></defs>
    <g id="Page-1" stroke="none" stroke-width="1" fill="none" fill-rule="evenodd">
        <g id="haplo" fill="#FFFFFF" fill-rule="nonzero">
            <g id="Rectangle-1-+-Research-Manager-2-+-Research">
                <g id="Research-Manager-2">
                    <g id="Group">
                        <path d="M3.78951493,29.2981343 L20.1633582,29.2981343 C20.3129104,27.0898881 21.1908582,25.0824627 22.5597761,23.5126119 L10.9821269,11.9346269 C9.4408209,13.0409328 7.31496269,12.9607836 5.86141791,11.6929478 C2.7905597,15.736791 0.718768657,20.5759701 0,25.8481343 C1.92324627,25.9805597 3.48246269,27.4271642 3.78951493,29.2981343 Z" id="Shape"></path>
                        <path d="M56.1539552,30.6453358 L39.78,30.6453358 C39.6304478,32.8540299 38.7521642,34.8614552 37.3832463,36.4308582 L48.961791,48.0089552 C50.5027612,46.9029851 52.6285075,46.9832463 54.0821642,48.2509701 C57.1529104,44.2071269 59.2248134,39.3675 59.9434701,34.0953358 C58.0197761,33.9629104 56.4608955,32.516306 56.1539552,30.6453358 Z" id="Shape"></path>
                        <path d="M10.981791,48.0089552 L22.5603358,36.431194 C21.1909701,34.8614552 20.3130224,32.8540299 20.1634701,30.6452239 L3.78951493,30.6452239 C3.48246269,32.516306 1.92324627,33.9629104 0,34.0953358 C0.718768657,39.3675 2.7905597,44.2071269 5.86097015,48.2505224 C7.31552239,46.9832463 9.44093284,46.9029851 10.981791,48.0089552 Z" id="Shape"></path>
                        <path d="M48.9608955,11.9341791 L37.3832463,23.5127239 C38.7521642,25.0824627 39.6304478,27.09 39.78,29.2982463 L56.1538433,29.2982463 C56.4607836,27.4271642 58.0196642,25.9805597 59.9434701,25.8482463 C59.2248134,20.5760821 57.1527985,15.736903 54.0821642,11.6930597 C52.6276119,12.9606716 50.5017537,13.0409328 48.9608955,11.9341791 Z" id="Shape"></path>
                        <path d="M48.0089552,48.9613433 L36.4307463,37.3832463 C34.8613433,38.7526119 32.8539179,39.6305597 30.6452239,39.78 L30.6452239,56.1539552 C32.516306,56.4608955 33.9629104,58.0202239 34.0952239,59.943806 C39.3673881,59.2250373 44.2065672,57.1526866 48.2504104,54.0823881 C46.9827985,52.6280597 46.9029851,50.5022015 48.0089552,48.9613433 Z" id="Shape"></path>
                        <path d="M25.8480224,59.9439179 C25.9805597,58.0202239 27.4270522,56.4610075 29.2981343,56.1540672 L29.2981343,39.78 C27.0894403,39.6305597 25.0820149,38.7526119 23.5121642,37.383694 L11.9341791,48.9613433 C13.0400373,50.5027612 12.9602239,52.6285075 11.6925,54.0825 C15.7363433,57.1527985 20.5759701,59.2251493 25.8480224,59.9439179 Z" id="Shape"></path>
                        <path d="M34.0953358,0 C33.9629104,1.92369403 32.5164179,3.48257463 30.6453358,3.78996269 L30.6453358,20.1634701 C32.8539179,20.3130224 34.8610075,21.1908582 36.4308582,22.5603358 L48.0089552,10.981791 C46.9029851,9.4413806 46.9832463,7.31507463 48.2505224,5.86141791 C44.2066791,2.7905597 39.3675,0.718656716 34.0953358,0 Z" id="Shape"></path>
                        <path d="M11.9346269,10.9821269 L23.5121642,22.5602239 C25.0820149,21.1908582 27.0894403,20.3129104 29.2981343,20.1633582 L29.2981343,3.78996269 C27.4271642,3.48257463 25.9805597,1.92414179 25.8480224,0 C20.5759701,0.718656716 15.736791,2.7905597 11.6929478,5.86141791 C12.9606716,7.31507463 13.0404851,9.44171642 11.9346269,10.9821269 Z" id="Shape"></path>
                    </g>
                </g>
            </g>
            <path d="M105.054799,13.7375939 L109.710576,13.7375939 L109.710576,47 L105.054799,47 L105.054799,31.640736 L88.7835791,31.640736 L88.7835791,47 L84.1278022,47 L84.1278022,13.7375939 L88.7835791,13.7375939 L88.7835791,27.6089292 L105.054799,27.6089292 L105.054799,13.7375939 Z M126.12579,43.7841541 C127.181744,43.7841541 128.11769,43.7601555 128.933655,43.7121575 C129.74962,43.6641596 130.429581,43.5761647 130.973557,43.4481702 L130.973557,36.0085267 C130.653571,35.8485336 130.133601,35.7125414 129.413632,35.6005462 C128.693663,35.4885511 127.821714,35.4325543 126.797758,35.4325543 C126.125786,35.4325543 125.413828,35.4805515 124.66186,35.5765474 C123.909892,35.6725433 123.221932,35.8725317 122.597959,36.1765186 C121.973986,36.4805056 121.454016,36.8964815 121.038034,37.4244588 C120.622051,37.9524362 120.414063,38.6483959 120.414063,39.5123588 C120.414063,41.1122901 120.926034,42.2242257 121.94999,42.8481989 C122.973946,43.4721722 124.365865,43.7841541 126.12579,43.7841541 Z M125.741808,21.4172259 C127.533731,21.4172259 129.045644,21.6492125 130.277591,22.1131925 C131.509538,22.5771726 132.50148,23.2331346 133.253448,24.0810982 C134.005416,24.9290619 134.541385,25.9370035 134.861371,27.1049533 C135.181357,28.2729032 135.341348,29.5608286 135.341348,30.9687682 L135.341348,46.5680207 C134.957365,46.632018 134.421396,46.7200129 133.733425,46.832008 C133.045455,46.9440032 132.2695,47.0479972 131.405537,47.1439931 C130.541574,47.239989 129.605628,47.3279839 128.597671,47.4079804 C127.589715,47.487977 126.589772,47.5279747 125.597815,47.5279747 C124.189875,47.5279747 122.89395,47.383983 121.710001,47.0959954 C120.526052,46.8080078 119.502111,46.3520342 118.638149,45.7280609 C117.774186,45.1040877 117.102224,44.2801355 116.622245,43.2561794 C116.142266,42.2322233 115.90228,41.0002947 115.90228,39.5603565 C115.90228,38.1844156 116.182263,37.0004841 116.742239,36.0085267 C117.302215,35.0165693 118.062171,34.2166156 119.02213,33.6086417 C119.982089,33.0006678 121.102024,32.5526937 122.381969,32.2647061 C123.661914,31.9767185 125.005836,31.8327268 126.413776,31.8327268 C126.861757,31.8327268 127.32573,31.8567254 127.805709,31.9047233 C128.285689,31.9527213 128.741662,32.0167176 129.173644,32.0967141 C129.605625,32.1767107 129.981603,32.2487065 130.30159,32.3127038 C130.621576,32.3767011 130.845563,32.4246983 130.973557,32.4566969 L130.973557,31.2087567 C130.973557,30.4727883 130.893562,29.7448304 130.733569,29.0248613 C130.573576,28.3048923 130.285592,27.6649293 129.86961,27.1049533 C129.453628,26.5449774 128.885661,26.0970033 128.165692,25.7610177 C127.445723,25.4250322 126.509777,25.2570419 125.357827,25.2570419 C123.88589,25.2570419 122.597964,25.3610359 121.494012,25.5690269 C120.390059,25.777018 119.566107,25.9930055 119.02213,26.2169959 L118.494155,22.521173 C119.070131,22.265184 120.030075,22.0171983 121.374017,21.7772086 C122.71796,21.537219 124.173875,21.4172259 125.741808,21.4172259 Z M160.060164,34.5685957 C160.060164,31.6567207 159.340205,29.4168504 157.900267,27.8489177 C156.460329,26.280985 154.54044,25.4970304 152.140543,25.4970304 C150.796601,25.4970304 149.748661,25.5450276 148.996694,25.6410235 C148.244726,25.7370194 147.644761,25.8490129 147.19678,25.9770074 L147.19678,41.720253 C147.740757,42.1682338 148.524711,42.6002088 149.548667,43.0161909 C150.572623,43.432173 151.692558,43.640161 152.908506,43.640161 C154.188451,43.640161 155.284388,43.4081744 156.196349,42.9441943 C157.10831,42.4802143 157.852267,41.8402513 158.428242,41.0242863 C159.004217,40.2083214 159.420193,39.248377 159.676182,38.1444243 C159.932171,37.0404717 160.060164,35.8485408 160.060164,34.5685957 Z M164.715941,34.5685957 C164.715941,36.4565147 164.467955,38.2004137 163.971976,39.800345 C163.475997,41.4002763 162.74804,42.7761966 161.788081,43.9281472 C160.828122,45.0800978 159.65219,45.9760459 158.26025,46.6160184 C156.86831,47.2559909 155.276402,47.5759724 153.484479,47.5759724 C152.044541,47.5759724 150.772614,47.3839835 149.668662,47 C148.564709,46.6160165 147.740757,46.2480378 147.19678,45.8960529 L147.19678,55.8795745 L142.732994,55.8795745 L142.732994,22.8091592 C143.788949,22.5531702 145.108872,22.2731864 146.692804,21.9691994 C148.276736,21.6652125 150.10863,21.5132213 152.188541,21.5132213 C154.108458,21.5132213 155.836358,21.8172037 157.372292,22.4251776 C158.908226,23.0331515 160.22015,23.8971015 161.308104,25.0170534 C162.396057,26.1370053 163.236008,27.5049261 163.827983,29.1208567 C164.419958,30.7367874 164.715941,32.5526822 164.715941,34.5685957 Z M178.49128,47.479977 C175.739399,47.4159797 173.787512,46.824014 172.635561,45.7040621 C171.48361,44.5841102 170.907644,42.8402112 170.907644,40.4723128 L170.907644,10.521748 L175.37143,9.7537848 L175.37143,39.7523473 C175.37143,40.4883157 175.435426,41.0962805 175.563421,41.5762599 C175.691415,42.0562393 175.899403,42.4402171 176.187391,42.7282047 C176.475378,43.0161923 176.859356,43.2321798 177.339336,43.3761736 C177.819315,43.5201675 178.411281,43.6401605 179.115251,43.7361564 L178.49128,47.479977 Z M206.137956,34.520598 C206.137956,36.5045129 205.849972,38.2964091 205.273997,39.8963404 C204.698022,41.4962717 203.890069,42.872192 202.850113,44.0241426 C201.810158,45.1760932 200.57023,46.0640417 199.130291,46.6880149 C197.690353,47.3119882 196.122444,47.6239701 194.426517,47.6239701 C192.73059,47.6239701 191.16268,47.3119882 189.722742,46.6880149 C188.282804,46.0640417 187.042876,45.1760932 186.00292,44.0241426 C184.962965,42.872192 184.155012,41.4962717 183.579037,39.8963404 C183.003061,38.2964091 182.715078,36.5045129 182.715078,34.520598 C182.715078,32.5686818 183.003061,30.7847851 183.579037,29.1688544 C184.155012,27.5529238 184.962965,26.169004 186.00292,25.0170534 C187.042876,23.8651028 188.282804,22.9771543 189.722742,22.353181 C191.16268,21.7292078 192.73059,21.4172259 194.426517,21.4172259 C196.122444,21.4172259 197.690353,21.7292078 199.130291,22.353181 C200.57023,22.9771543 201.810158,23.8651028 202.850113,25.0170534 C203.890069,26.169004 204.698022,27.5529238 205.273997,29.1688544 C205.849972,30.7847851 206.137956,32.5686818 206.137956,34.520598 Z M201.482179,34.520598 C201.482179,31.7047189 200.850215,29.4728481 199.58627,27.8249188 C198.322324,26.1769896 196.602423,25.3530373 194.426517,25.3530373 C192.25061,25.3530373 190.53071,26.1769896 189.266764,27.8249188 C188.002818,29.4728481 187.370855,31.7047189 187.370855,34.520598 C187.370855,37.3364771 188.002818,39.5683479 189.266764,41.2162771 C190.53071,42.8642064 192.25061,43.6881587 194.426517,43.6881587 C196.602423,43.6881587 198.322324,42.8642064 199.58627,41.2162771 C200.850215,39.5683479 201.482179,37.3364771 201.482179,34.520598 Z" id="Haplo"></path>
        </g>
    </g>
</svg>
